#tb 0: 1/15
#tb 1: 1/44100
0,          0,          0,        1,    69120, 0x68beb30f
1,          0,          0,     2709,    10836, 0xedecb6a7
1,       2709,       2709,     2709,    10836, 0x8098a323
0,          1,          1,        1,    69120, 0x3976f5cf
1,       5418,       5418,     2709,    10836, 0xcfa1112e
0,          2,          2,        1,    69120, 0xf815bc3c
1,       8127,       8127,     2709,    10836, 0xe241ede4
0,          3,          3,        1,    69120, 0xa7cc0ae6
1,      10836,      10836,     2709,    10836, 0xddf254bb
0,          4,          4,        1,    69120, 0xd85ac282
1,      13545,      13545,     2709,    10836, 0xa16c8507
0,          5,          5,        1,    69120, 0xf7fd7edb
1,      16254,      16254,     2709,    10836, 0xbe211f93
0,          6,          6,        1,    69120, 0x433bb6f6
1,      18963,      18963,     2709,    10836, 0x26c7283d
0,          7,          7,        1,    69120, 0xdbac8bee
1,      21672,      21672,     2709,    10836, 0x4d18be56
0,          8,          8,        1,    69120, 0x88e2a799
1,      24381,      24381,     2709,    10836, 0x57b9af6f
0,          9,          9,        1,    69120, 0x49617b26
1,      27090,      27090,     2709,    10836, 0xd5864280
0,         10,         10,        1,    69120, 0xeb44ca01
1,      29799,      29799,     2709,    10836, 0xd582b451
0,         11,         11,        1,    69120, 0x6fea37e8
1,      32508,      32508,     2709,    10836, 0xec13731d
1,      35217,      35217,     2709,    10836, 0xe3d4fbb8
0,         12,         12,        1,    69120, 0xf55d74c7
1,      37926,      37926,     2709,    10836, 0xcbb54d18
0,         13,         13,        1,    69120, 0xb5082ca7
1,      40635,      40635,     2709,    10836, 0xff7e7133
0,         14,         14,        1,    69120, 0x5876d758
1,      43344,      43344,     2709,    10836, 0xcc28b1a7
1,      46053,      46053,     2709,    10836, 0xbf9e07a5
1,      48762,      48762,     2709,    10836, 0x16408f38
1,      51471,      51471,     2709,    10836, 0x2b000c9f
1,      54180,      54180,     2709,    10836, 0x0ccd9811
1,      56889,      56889,     2709,    10836, 0xf9575d48
1,      59598,      59598,     2709,    10836, 0x1ee68190
1,      62307,      62307,     2709,    10836, 0xde435373
1,      65016,      65016,     2709,    10836, 0xd83be17a
1,      67725,      67725,     2709,    10836, 0x9a7f0bbe
1,      70434,      70434,     2709,    10836, 0x8709e4d3
1,      73143,      73143,     2709,    10836, 0xde1879cb
